# xmcd
# 
# Track frame offsets:
#     150
#     12102
#     23037
#     34287
#     45762
#     57387
#     66800
#     77727
#     87275
#     97815
#     109220
#     118140
#     128417
#     140557
# 
# Disc length: 2033
# 
# Revision: 23
# Processed by: cddbd v1.5.2PL0 Copyright (c) Steve Scherf et al.
# Submitted via: fre:ac v1.0.31
# 
DISCID=ac07ef0e
DTITLE=Janis Joplin - Box Of Pearls The Janis Joplin Collection (1 Of 5)
DYEAR=1967
DGENRE=Rock/Pop
TTITLE0=Bye, Bye Baby
TTITLE1=Easy Rider
TTITLE2=Intruder
TTITLE3=Light Is Faster Than Sound
TTITLE4=Call On Me
TTITLE5=Women Is Losers
TTITLE6=Blindman
TTITLE7=Down On Me
TTITLE8=Caterpillar
TTITLE9=All Is Loneliness
TTITLE10=Coo Coo [Single]
TTITLE11=Last Time, The [Single]
TTITLE12=Call On Me [Alternate Take]
TTITLE13=Bye, Bye Baby [Alternate Take]
EXTD=
EXTT0=
EXTT1=
EXTT2=
EXTT3=
EXTT4=
EXTT5=
EXTT6=
EXTT7=
EXTT8=
EXTT9=
EXTT10=
EXTT11=
EXTT12=
EXTT13=
PLAYORDER=
